<svg width="1195" height="881" viewBox="0 0 1195 881" fill="none" xmlns="http://www.w3.org/2000/svg">
<path d="M164 323L410 443" stroke="#292B34" stroke-width="15"/>
<path d="M164 323L410 190" stroke="#292B34" stroke-width="15"/>
<path d="M164 557L410 443" stroke="#292B34" stroke-width="15"/>
<path d="M164 557L410 696" stroke="#292B34" stroke-width="15"/>
<circle cx="164" cy="323" r="38" fill="white" stroke="#292B34" stroke-width="10"/>
<circle cx="164" cy="557" r="38" fill="white" stroke="#292B34" stroke-width="10"/>
<circle cx="410" cy="190" r="43" fill="#292B34"/>
<circle cx="410" cy="443" r="43" fill="#292B34"/>
<circle cx="410" cy="696" r="43" fill="#292B34"/>
<path d="M410 696H580" stroke="#292B34" stroke-width="15"/>
<path d="M410 696L580 443" stroke="#292B34" stroke-width="15"/>
<path d="M410 440L580 696" stroke="#292B34" stroke-width="15"/>
<path d="M410 443L580 190" stroke="#292B34" stroke-width="15"/>
<path d="M410 190L580 440" stroke="#292B34" stroke-width="15"/>
<path d="M410 190H580" stroke="#292B34" stroke-width="15"/>
<path d="M410 443H580" stroke="#292B34" stroke-width="15"/>
<circle cx="741" cy="190" r="43" fill="#292B34"/>
<circle cx="741" cy="443" r="43" fill="#292B34"/>
<circle cx="741" cy="696" r="43" fill="#292B34"/>
<path d="M741 696L1017 443" stroke="#292B34" stroke-width="15"/>
<path d="M741 190L1017 440" stroke="#292B34" stroke-width="15"/>
<path d="M741 443H1017" stroke="#292B34" stroke-width="15"/>
<circle cx="1017" cy="440" r="38" fill="white" stroke="#292B34" stroke-width="10"/>
<circle cx="579" cy="190" r="43" fill="#292B34"/>
<circle cx="579" cy="443" r="43" fill="#292B34"/>
<circle cx="579" cy="696" r="43" fill="#292B34"/>
<path d="M579 696H749" stroke="#292B34" stroke-width="15"/>
<path d="M579 696L749 443" stroke="#292B34" stroke-width="15"/>
<path d="M579 440L749 696" stroke="#292B34" stroke-width="15"/>
<path d="M579 443L749 190" stroke="#292B34" stroke-width="15"/>
<path d="M579 190L749 440" stroke="#292B34" stroke-width="15"/>
<path d="M579 190H749" stroke="#292B34" stroke-width="15"/>
<path d="M579 443H749" stroke="#292B34" stroke-width="15"/>
</svg>
